<svg xmlns="http://www.w3.org/2000/svg" viewBox="0 0 94.19 94.21"><defs><style>.cls-1{fill:#fff;}</style></defs><title>Ativo 4</title><g id="Camada_2" data-name="Camada 2"><g id="Capa_1" data-name="Capa 1"><path class="cls-1" d="M94,27.7a34.37,34.37,0,0,0-2.19-11.43,22.92,22.92,0,0,0-5.44-8.36A23.29,23.29,0,0,0,78,2.48,34.73,34.73,0,0,0,66.55.29C61.51.06,59.91,0,47.11,0S32.72.06,27.7.28A34.37,34.37,0,0,0,16.27,2.47,22.92,22.92,0,0,0,7.91,7.91a23.29,23.29,0,0,0-5.43,8.34A34.73,34.73,0,0,0,.29,27.68C.06,32.72,0,34.32,0,47.11s.06,14.4.28,19.42A34.37,34.37,0,0,0,2.47,78,24,24,0,0,0,16.25,91.74a34.48,34.48,0,0,0,11.43,2.19c5,.23,6.63.28,19.42.28s14.39,0,19.41-.28a34.37,34.37,0,0,0,11.43-2.19A24.09,24.09,0,0,0,91.73,78a34.48,34.48,0,0,0,2.19-11.43c.22-5,.27-6.62.27-19.42S94.17,32.72,94,27.7ZM85.47,66.16a25.81,25.81,0,0,1-1.62,8.74,15.6,15.6,0,0,1-8.95,8.95,25.87,25.87,0,0,1-8.74,1.62c-5,.22-6.46.27-19,.27s-14.08,0-19-.27a25.87,25.87,0,0,1-8.74-1.62,15.59,15.59,0,0,1-8.93-8.93,26,26,0,0,1-1.61-8.74c-.23-5-.28-6.46-.28-19s.05-14.08.28-19a25.94,25.94,0,0,1,1.61-8.74A14.45,14.45,0,0,1,14,14a14.69,14.69,0,0,1,5.41-3.52,26.25,26.25,0,0,1,8.74-1.62c5-.22,6.46-.27,19-.27s14.08,0,19,.27a26.07,26.07,0,0,1,8.74,1.62A14.45,14.45,0,0,1,80.33,14a14.69,14.69,0,0,1,3.52,5.41,26,26,0,0,1,1.62,8.74c.22,5,.27,6.46.27,19S85.69,61.19,85.47,66.16Z"/><path class="cls-1" d="M47.11,22.91a24.21,24.21,0,1,0,24.21,24.2A24.21,24.21,0,0,0,47.11,22.91Zm0,39.9a15.7,15.7,0,1,1,15.7-15.7A15.7,15.7,0,0,1,47.11,62.81Z"/><path class="cls-1" d="M77.92,22a5.65,5.65,0,1,1-5.65-5.65A5.65,5.65,0,0,1,77.92,22Z"/></g></g></svg>